. 
 
http://www.torrenting.com          :     Once & For all ;)


               www . Torrenting . Com 

(((((((((((((= Enjoy No RAR releases =))))))))))))))))))))


...................................NFO:....................................

.Hell.And.Back.Again.2011.BRRip.XviD.AC3-SiC

Poster:
[IMG]http://i.imgur.com/QWyK1.jpg[/IMG]

IMDB Link: 
http://www.imdb.com/title/tt1748043/

Description:
What does it mean to lead men in war? What does it mean to come home? Hell and Back Again is a cinematically...

General:
Complete name                            : Hell.And.Back.Again.2011.BRRip.XviD.AC3-SiC.avi
Format                                   : AVI
Format/Info                              : Audio Video Interleave
File size                                : 1.31 GiB
Duration                                 : 1h 28mn
Overall bit rate                         : 2 125 Kbps
Writing application                      : VirtualDubMod 1.5.10.2 (build 2540/release)
Writing library                          : VirtualDubMod build 2540/release

Video
ID                                       : 0
Format                                   : MPEG-4 Visual
Format profile                           : Advanced Simple@L5
Format settings, BVOP                    : 2
Format settings, QPel                    : No
Format settings, GMC                     : No warppoints
Format settings, Matrix                  : Default (H.263)
Muxing mode                              : Packed bitstream
Codec ID                                 : XVID
Codec ID/Hint                            : XviD
Duration                                 : 1h 28mn
Bit rate                                 : 1 732 Kbps
Width                                    : 1 280 pixels
Height                                   : 720 pixels
Display aspect ratio                     : 16:9
Frame rate                               : 23.976 fps
Color space                              : YUV
Chroma subsampling                       : 4:2:0
Bit depth                                : 8 bits
Scan type                                : Progressive
Compression mode                         : Lossy
Bits/(Pixel*Frame)                       : 0.078
Stream size                              : 1.07 GiB (81%)
Writing library                          : XviD 64

Audio
ID                                       : 1
Format                                   : AC-3
Format/Info                              : Audio Coding 3
Mode extension                           : CM (complete main)
Codec ID                                 : 2000
Duration                                 : 1h 28mn
Bit rate mode                            : Constant
Bit rate                                 : 384 Kbps
Channel(s)                               : 6 channels
Channel positions                        : Front: L C R, Side: L R, LFE
Sampling rate                            : 48.0 KHz
Bit depth                                : 16 bits
Compression mode                         : Lossy
Stream size                              : 243 MiB (18%)
Alignment                                : Split accross interleaves
Interleave, duration                     : 42 ms (1.00 video frame)
Interleave, preload duration             : 500 ms

Screenshots:
[IMG]http://i.imgur.com/I0h6Q.jpg[/IMG]
[IMG]http://i.imgur.com/r7He2.jpg[/IMG]
[IMG]http://i.imgur.com/eVgiw.jpg[/IMG]
[IMG]http://i.imgur.com/8F2tm.jpg[/IMG]

Source:  Hell.And.Back.Again.2011.1080p.BluRay.x264

Enjoy!

Respects to T00NG0D, ELEKTRI4KA, PA, YeFsTe, MrRep and everyone in the struggle...